PathFileType	4	(X/Y/Z)	C:/Users/beibeiliu/ov580/test_trc/capture2\sequence.6_training_dense_left.trc
DataRate	CameraRate	NumFrames	NumMarkers	Units	OrigDataRate	OrigDataStartFrame	OrigNumFrames
120	120	14	19	mm	120	45	353
Frame#	Time	ThumbCMC			ThumbMCP			ThumbIP			ThumbTip			IndexMCP			IndexPIP			IndexTip			MiddleMCP			MiddlePIP			MiddleTip			RingMCP			RingPIP			RingTip			PinkyMCP			PinkyPIP			PinkyTip			BackHand1			BackHand2			BackHand3	
		X0	Y0	Z0	X1	Y1	Z1	X2	Y2	Z2	X3	Y3	Z3	X4	Y4	Z4	X5	Y5	Z5	X6	Y6	Z6	X7	Y7	Z7	X8	Y8	Z8	X9	Y9	Z9	X10	Y10	Z10	X11	Y11	Z11	X12	Y12	Z12	X13	Y13	Z13	X14	Y14	Z14	X15	Y15	Z15	X16	Y16	Z16	X17	Y17	Z17	X18	Y18	Z18	
44	0.366667	-152.663	84.8745	-32.7544	-123.273	89.4729	-55.5048	-110.933	85.3874	-84.618	-113.585	62.7265	-98.9292	-172.875	81.1244	-103.613	-165.469	80.565	-131.242	-138.721	75.0103	-150.08	-151.071	61.9714	-105.481	-119.151	61.6475	-102.467	-126.381	66.6472	-64.8843	-137.365	42.6369	-98.2523	-114.589	48.3609	-82.2921	-131.572	53.6407	-50.2406	-141.217	27.8309	-86.8263	-118.644	38.9087	-65.7622	-138.353	50.702	-43.1149	-183.068	37.7724	-58.6806	-186.327	39.4364	-28.0972	-186.845	71.2068	-44.2664	
45	0.375	-150.922	87.1895	-35.5701	-122.707	88.2667	-57.9195	-110.959	82.9783	-79.2492	-108.681	66.4139	-97.694	-171.583	82.4631	-105.763	-163.005	83.923	-133.524	-145.437	78.855	-155.154	-146.357	61.9439	-107.841	-115.969	60.5478	-97.4646	-124.469	65.7432	-64.4184	-139.206	46.3068	-98.0635	-114.347	50.0872	-81.927	-132.744	56.0013	-49.4517	-135.236	29.0091	-87.2829	-117.734	37.4606	-65.7278	-134.979	48.8198	-42.6958	-182.457	34.306	-59.1158	-187.894	39.3721	-27.0193	-185.539	69.7985	-43.0013	
46	0.383333	-151.389	90.0991	-38.7366	-121.374	91.5197	-56.5704	-109.876	84.8333	-80.0661	-110.053	61.6244	-97.783	-170.896	83.3488	-105.669	-165.258	83.1127	-131.233	-151.613	76.7048	-156.741	-145.481	63.696	-108.459	-113.796	64.4704	-96.725	-124.198	65.7548	-63.8495	-137.736	40.5172	-97.2517	-113.009	51.6998	-80.2675	-128.922	54.3545	-49.2597	-133.71	29.2006	-87.1371	-117.386	39.2224	-68.9712	-135.768	47.9051	-44.1714	-182.406	38.8993	-61.9102	-186.353	38.2412	-27.8599	-184.951	71.3426	-44.8	
47	0.391667	-150.203	90.4086	-37.0545	-123.443	86.8609	-56.7743	-106.954	85.5832	-83.1493	-105.25	64.7229	-100.167	-170.273	83.3055	-109.231	-164.399	85.7	-130.242	-156.633	82.1137	-157.646	-147.038	61.0964	-106.457	-114.061	60.6815	-98.1697	-124.394	67.2614	-62.8852	-133.793	42.5277	-97.1083	-113.362	51.2526	-79.216	-130.233	55.7333	-48.0591	-137.218	29.3787	-85.9861	-118.298	39.2511	-64.8811	-139.805	48.9427	-42.8794	-180.86	37.3188	-58.8036	-187.762	40.6108	-31.548	-186.327	71.3314	-45.459	
48	0.4	-151.995	88.7108	-34.7122	-123.619	86.6798	-55.5527	-106.926	85.7732	-82.1684	-108.568	61.4444	-98.3351	-170.615	83.0712	-107.65	-165.031	83.0472	-132.284	-159.195	80.3434	-157.088	-146.045	59.3843	-106.337	-114.163	64.9261	-97.122	-126.444	69.3487	-62.4139	-138.301	45.0071	-95.7547	-112.357	48.2727	-75.7428	-133.546	59.3837	-49.7372	-132.907	28.1639	-85.7465	-118.905	41.6877	-63.0478	-137.541	48.8585	-42.7837	-182.358	35.319	-59.6606	-186.458	38.0404	-32.6928	-186.635	66.4734	-44.6338	
49	0.408333	-149.658	91.4148	-38.7216	-123.901	87.0004	-56.2393	-108.817	83.7987	-80.8958	-106.998	62.6001	-100.647	-169.744	82.8552	-110.122	-163.549	85.3621	-134.782	-158.863	83.0358	-157.128	-144.439	61.2812	-108.007	-114.477	62.2419	-97.5768	-127.584	63.8562	-60.8032	-135.734	42.9294	-97.4434	-112.827	51.2162	-76.3664	-130.496	55.4973	-48.2781	-139.923	29.5421	-85.9235	-119.019	41.5605	-66.8686	-139.012	48.1142	-39.4102	-182.844	37.269	-63.1409	-185.748	41.1088	-31.0247	-185.722	69.1783	-46.4137	
50	0.416667	-150.121	89.8571	-33.9424	-122.064	88.0681	-57.2345	-107.924	83.1864	-79.5066	-103.917	64.406	-101.099	-168.443	84.9568	-105.232	-163.998	81.9084	-134.286	-159.387	83.0743	-155.894	-144.112	60.6045	-106.834	-113.449	61.8374	-97.3653	-123.696	63.3881	-63	-137.776	43.9158	-97.1636	-112.001	48.8482	-75.2967	-132.622	56.3468	-48.2041	-134.362	29.3657	-85.585	-116.733	37.5642	-64.9292	-135.699	49.5894	-41.9967	-182.494	37.497	-60.9306	-187.584	37.767	-32.2199	-185.995	68.7486	-46.9472	
51	0.425	-149.034	89.828	-33.3773	-119.3	90.3967	-54.8548	-107.507	82.2928	-78.8871	-105.247	60.8268	-101.237	-168.654	82.5407	-107.3	-162.996	83.4559	-133.033	-157.383	79.984	-159.062	-144.252	61.1356	-106.231	-114.064	64.4165	-100.445	-126.472	64.4563	-60.0189	-136.541	46.1518	-96.768	-112.425	52.2676	-76.7351	-128.855	54.3309	-48.7967	-135.744	25.7534	-85.4529	-117.697	40.6294	-63.2077	-138.169	50.5265	-44.2024	-181.072	38.9844	-61.9366	-185.568	36.1744	-30.3641	-185.811	71.1123	-47.0749	
52	0.433333	-150.277	86.9348	-36.1015	-122.062	88.1318	-53.0516	-106.034	83.0543	-84.46	-106.151	60.6119	-99.1771	-168.33	80.1081	-105.38	-162.337	81.2713	-131.522	-152.864	77.8745	-157.654	-140.936	59.1404	-108.24	-113.072	63.6637	-99.1943	-123.743	68.5847	-62.4892	-136.896	40.7196	-94.6683	-112.224	50.9732	-76.9618	-129.815	55.3254	-47.5681	-134.564	26.6625	-84.1811	-117.789	40.4658	-62.2875	-139.56	49.04	-38.1489	-179.394	39.1796	-61.9652	-187.032	35.8604	-27.4402	-184.685	71.2545	-48.1342	
53	0.441667	-148.95	88.6254	-32.7691	-120.764	88.4249	-57.7894	-105.746	83.4358	-82.9456	-106.372	61.7899	-96.9307	-168.466	79.9238	-103.835	-160.469	81.2234	-132.412	-148.219	78.8691	-153.704	-141.511	62.9931	-107.351	-111.818	62.9852	-95.7576	-123.932	65.6783	-61.6097	-135.413	45.9665	-95.5223	-111.889	48.7759	-77.4436	-125.943	57.5106	-49.3152	-136.003	29.1077	-84.8239	-117.033	41.678	-64.5057	-135.25	50.232	-40.2913	-181.968	35.336	-57.6374	-186.21	37.4599	-28.5442	-184.301	71.9014	-47.3379	
54	0.45	-148.634	88.2559	-36.8481	-121.884	86.7418	-54.6199	-106.618	82.9268	-80.9976	-106.092	61.8745	-96.2617	-168.398	77.8565	-104.17	-157.233	78.0271	-135.203	-138.542	74.6954	-150.87	-143.458	56.5032	-106.316	-112.785	61.9125	-95.9524	-123.96	66.4965	-61.8943	-135.746	39.6959	-94.0977	-110.5	46.3467	-74.444	-126.708	56.0825	-49.5722	-132.728	28.0911	-83.8437	-116.031	39.4643	-63.5966	-136.419	48.8557	-42.1008	-180.946	35.0181	-58.9705	-183.425	35.0575	-26.0843	-182.038	70.3623	-44.875	
55	0.458333	-148.513	85.2178	-34.9335	-120.172	86.5986	-56.5865	-108.199	79.9271	-79.1024	-103.44	61.703	-99.8548	-167.818	75.1138	-101.72	-154.264	73.8191	-131.494	-127.131	70.7408	-143.353	-144.328	58.2198	-106.423	-112.344	61.8834	-98.5313	-120.917	62.3793	-64.5574	-138.3	41.8824	-94.6659	-109.71	47.3939	-74.4213	-126.029	54.9982	-49.3934	-133.417	25.0219	-83.9213	-115.159	38.1884	-66.0511	-137.865	46.2857	-39.1372	-179.328	37.6912	-57.5064	-184.058	38.7676	-28.187	-184.325	68.7078	-42.079	
56	0.466667	-148.232	86.9274	-36.5071	-119.795	87.5078	-56.0615	-105.927	82.4106	-80.5814	-102.922	62.9575	-98.35	-167.454	75.9582	-104.467	-151.803	74.297	-130.649	-122.887	71.6426	-136.118	-143.431	56.914	-108	-113.008	58.1203	-97.4815	-125.018	61.5071	-63.1944	-138.226	40.0907	-94.1404	-110.484	46.004	-75.2447	-128.269	56.5226	-49.9176	-137.819	25.2983	-83.0162	-115.021	36.3251	-67.0215	-134.713	45.7339	-39.3574	-179.835	33.4293	-61.1626	-186.001	35.3245	-25.3839	-181.495	70.0795	-45.6506	
57	0.475	-148.953	84.6574	-32.3879	-122.306	85.1918	-53.2118	-109.056	77.3751	-79.9804	-106.539	59.9613	-95.2852	-165.58	74.4759	-106.625	-148.601	69.0683	-129.718	-117.515	69.2152	-129.699	-143.915	54.4589	-107.429	-114.368	55.9259	-101.293	-126.098	62.1253	-63.1648	-133.923	40.3197	-95.7613	-110.12	47.2093	-77.8466	-124.607	54.5214	-51.3248	-135.93	23.2736	-82.8909	-113.984	34.7053	-62.5825	-131.502	45.0884	-37.8758	-178.308	33.0697	-57.4824	-185.439	39.2962	-27.0536	-183.007	67.5373	-43.1684	
